<?xml version="1.0" encoding="utf-8"?>
<!-- Generator: Adobe Illustrator 24.0.1, SVG Export Plug-In . SVG Version: 6.00 Build 0)  -->
<svg version="1.1" id="Layer_1" xmlns="http://www.w3.org/2000/svg" xmlns:xlink="http://www.w3.org/1999/xlink" x="0px" y="0px"
	 viewBox="0 0 71 71" style="enable-background:new 0 0 71 71;" xml:space="preserve">
<style type="text/css">
	.st0{fill:#006F80;}
</style>
<g>
	<path class="st0" d="M14.9,33.2c-0.7-8.4,1.3-17.1,3.5-21.6c0.2-0.4,0.6-0.6,0.9-0.5l0.7,0.2c1,0.2,2.2,0.3,3,0.3
		c1.8,0,8.2-0.3,14.4-3.8c0.1-0.1,0.3-0.1,0.4-0.1H38c0.1,0,0.3,0,0.4,0.1c6.2,3.6,12.6,3.8,14.4,3.8c0.8,0,2,0,3-0.3l0.7-0.2
		c0.4-0.1,0.8,0.1,0.9,0.5c1,2.1,1.9,5.1,2.6,8.2l-1.7,0.4c-0.6-2.7-1.3-5.2-2.2-7.2l-0.1,0c-1.2,0.2-2.5,0.3-3.4,0.3
		c-1.9,0-8.5-0.3-14.9-3.9c-6.4,3.6-13,3.9-14.9,3.9c-0.9,0-2.2-0.1-3.4-0.3l-0.1,0c-1.9,4.4-3.6,12.3-3,20L14.9,33.2z"/>
	<path class="st0" d="M38.2,64.7h-0.1c-0.1,0-0.2,0-0.3-0.1c-2.3-1-4.5-2.2-6.5-3.6l0.9-1.5c1.9,1.3,3.9,2.4,6,3.3
		c10.2-4.6,18-13.1,20.5-22.4c0.3-1.2,0.6-2.6,0.8-3.9l1.7,0.2c-0.2,1.4-0.5,2.8-0.8,4.2c-2.6,9.8-10.9,18.9-21.7,23.7
		C38.4,64.7,38.3,64.7,38.2,64.7z"/>
	<path class="st0" d="M37.9,70.5c-0.1,0-0.2,0-0.3-0.1C28,66.7,19.8,59.9,14.5,51.5l1.4-1c5.1,8,12.9,14.5,22,18.1
		c13-5.2,23.3-16.1,26.5-27.8c0.7-2.6,1.1-5.4,1.3-8.4l1.7,0.1c-0.2,3.1-0.6,6.1-1.3,8.8c-3.3,12.4-14.2,23.8-27.8,29.1
		C38.1,70.5,38,70.5,37.9,70.5z M8.6,31.5C8.2,20.1,11.6,9,15,4.9c0.2-0.2,0.5-0.4,0.8-0.3l3.9,0.8c2.3,0.5,10.9,0.3,17.6-4.8
		c0.3-0.2,0.7-0.2,1,0c6.8,5.1,15.4,5.3,17.8,4.8l3.9-0.8c0.3-0.1,0.6,0,0.8,0.3c2.3,2.8,4.4,8.5,5.6,14.9l-1.7,0.3
		c-1-5.8-2.9-11-4.9-13.7l-3.4,0.7C54,7.7,45.1,7.6,37.9,2.5c-7,5-15.6,5.3-18.5,4.7L16,6.5c-3.1,4.1-6,14.6-5.7,25L8.6,31.5z"/>
	<path class="st0" d="M14.2,42.6L13.5,41c20.3-10.7,34.9-16.8,46-19.3c1-0.2,2.1-0.2,3.1,0.1l7.2,2c0.3,0.1,0.5,0.3,0.6,0.6
		c0.1,0.3,0,0.6-0.2,0.9c-0.3,0.3-6.7,7.5-19.7,13.7l-0.7-1.6c9.8-4.7,15.9-10,18.2-12.2l-5.8-1.6c-0.8-0.2-1.6-0.2-2.3-0.1
		C48.9,25.9,34.4,32,14.2,42.6z"/>
	<path class="st0" d="M28.7,57.2c-0.2,0-0.5-0.1-0.6-0.3c-0.3-0.3-0.3-0.7-0.1-1l8.4-16.2c0.1-0.2,0.3-0.3,0.5-0.4l11.5-4.5
		c0.4-0.1,0.8,0,1,0.3c0.2,0.3,0.2,0.8-0.1,1.1l-15,18.2c-0.1,0.1-0.2,0.2-0.3,0.2l-4.9,2.5C29,57.1,28.8,57.2,28.7,57.2z
		 M37.7,40.8l-7,13.5l2.4-1.2l12.7-15.4L37.7,40.8z"/>
	<path class="st0" d="M36.7,31l-7.9-3.8l-2.6,0l2.8,2.1l-1,1.4l-5-3.7c-0.3-0.2-0.4-0.6-0.3-1c0.1-0.4,0.4-0.6,0.8-0.6l5.4,0
		c0.1,0,0.2,0,0.4,0.1l8,3.9L36.7,31z"/>
	<path class="st0" d="M12.8,48.4c-1.3,0-2.2-0.4-3.1-1.3c0,0-0.1-0.1-0.1-0.1l-9-12.5c-0.2-0.3-0.2-0.6-0.1-0.9
		c0.1-0.3,0.4-0.5,0.8-0.5c0,0,4.4,0.1,4.4,0.1c0.1,0,0.2,0,0.4,0.1c0.1,0,5.9,2.9,8.1,3.5c2.2,0.6,6,0.9,6,1L20,39.5
		c-0.2,0-4-0.4-6.3-1c-2.1-0.6-7.2-3-8.2-3.5l-2.4,0l7.9,11c0.7,0.7,1.5,0.9,3,0.6l21.8-5.2l0.4,1.7l-21.8,5.2
		C13.8,48.3,13.3,48.4,12.8,48.4z"/>
	<path class="st0" d="M61.7,27.2l-0.9-1.5c0.8-0.5,1.9-1.4,2.1-2l1.6,0.5C64.2,25.6,62.1,26.9,61.7,27.2z"/>
	<path class="st0" d="M27.6,40.8L27,39.1l2.1-0.8l0.6,1.7L27.6,40.8z M31.9,39.1l-0.6-1.7l2.1-0.8l0.6,1.7L31.9,39.1z M36.1,37.4
		l-0.6-1.7l2.1-0.8l0.6,1.7L36.1,37.4z M40.4,35.7l-0.6-1.7l2.1-0.8l0.6,1.7L40.4,35.7z M44.6,34L44,32.4l2.1-0.8l0.6,1.7L44.6,34z
		 M48.8,32.4l-0.6-1.7l2.1-0.8l0.6,1.7L48.8,32.4z M53.1,30.7L52.5,29l1.9-0.8l0.6,1.7L53.1,30.7z"/>
</g>
</svg>
